# File produced by Open Asset Import Library (http://www.assimp.sf.net)
# (assimp v3.1.113183908)

mtllib Diner%20Roof%20(Newer).mtl

# vertex positions
v -10.758108 5.453088 -7.482771
v -7.229506 5.453088 -11.467054
v 1.995305 5.453088 -3.297107
v -1.533384 5.453088 0.687103
v 11.048580 5.453088 -11.569769
v 10.980568 5.453088 -2.680529
v -0.696557 5.453088 12.173567
v -11.012390 5.453088 11.795483

# UV coordinates
vt 0.954332 0.821662
vt 0.803303 0.988385
vt 0.422201 0.636004
vt 0.550695 0.484142
vt 0.049590 0.988385
vt 0.049590 0.636004
vt 0.550695 0.017414
vt 0.954332 0.017414

# vertex normals
vn -0.000000 -1.000000 0.000000
vn -0.000000 -1.000000 0.000000
vn -0.000000 -1.000000 0.000000
vn -0.000000 -1.000000 0.000000
vn 0.000000 -1.000000 -0.000000
vn 0.000000 -1.000000 -0.000000
vn 0.000000 -1.000000 -0.000000

# Mesh
g Roof
usemtl Roof1
f 3/3/2 4/4/1 1/1/1 2/2/2
f 5/5/3 6/6/4 3/3/4 2/2/3
f 4/4/5 7/7/6 8/8/6 1/1/7
