# File produced by Open Asset Import Library (http://www.assimp.sf.net)
# (assimp v3.1.113183908)

mtllib Diner%20Roof.mtl

# vertex positions
v -1.859364 2.682790 -30.555473
v -1.859364 2.682790 -13.556853
v -6.222591 2.682790 -13.556853
v -6.222588 2.682790 -30.555473
v -9.072510 2.682793 -16.046246
v -15.368927 2.682790 -21.922619
v -18.972752 2.682790 -5.505877
v -25.901199 2.682790 -11.838362
v -15.841805 2.682790 -2.544571
v 2.503838 2.682790 -30.555473
v 2.503839 2.682790 -13.556853
v 12.052158 2.682793 -21.922619
v 5.353751 2.682793 -16.046246
v 22.182484 2.682790 -11.838364
v 15.253990 2.682790 -5.505877
v 12.123037 2.682790 -2.544571

# UV coordinates
vt 0.501007 0.830922
vt 0.501007 0.501951
vt 0.585447 0.501951
vt 0.585447 0.830922
vt 0.640601 0.550128
vt 0.762454 0.663852
vt 0.832199 0.346142
vt 0.966285 0.468694
vt 0.771606 0.288833
vt 0.416567 0.830922
vt 0.416567 0.501951
vt 0.231780 0.663852
vt 0.361413 0.550128
vt 0.035729 0.468694
vt 0.169815 0.346142
vt 0.230408 0.288833

# vertex normals
vn 0.000000 -1.000000 0.000000
vn -0.000000 -1.000000 0.000000
vn 0.000000 -1.000000 0.000000
vn 0.000000 -1.000000 -0.000000
vn 0.000000 -1.000000 0.000000
vn -0.000000 -1.000000 -0.000000
vn -0.000000 -1.000000 -0.000000
vn 0.000000 -1.000000 -0.000000
vn -0.000000 -1.000000 -0.000000
vn -0.000000 -1.000000 -0.000000
vn 0.000000 -1.000000 -0.000000

# Mesh
g Roof
usemtl lambert1
f 1/1/1 2/2/1 3/3/1 4/4/1
f 4/4/1 3/3/1 5/5/2 6/6/3
f 6/6/3 5/5/2 7/7/4 8/8/5
f 5/5/2 3/3/1 9/9/6 7/7/4
f 10/10/1 11/11/1 2/2/1 1/1/1
f 12/12/7 13/13/8 11/11/1 10/10/1
f 14/14/9 15/15/10 13/13/8 12/12/7
f 15/15/10 16/16/11 11/11/1 13/13/8
