# File produced by Open Asset Import Library (http://www.assimp.sf.net)
# (assimp v3.1.113183908)

mtllib Diner%20Floor.mtl

# vertex positions
v -0.810474 1.515436 -6.063559
v -3.124090 1.515436 -6.063558
v 1.040416 1.515436 -2.458876
v 2.005459 1.515436 -3.573794
v -1.593804 1.515436 4.881922
v -10.602926 1.515436 5.044117
v -10.704854 1.515436 11.536188
v -1.593806 1.515436 11.609123
v 2.301538 1.515436 -3.573794
v 2.301539 1.515436 -6.063559
v -7.230090 1.515436 -11.739597
v -3.776784 1.515436 -8.686283
v -3.706716 1.515436 -11.656485
v -0.990133 1.780573 -8.293104
v -0.765432 1.780573 -11.587100
v -3.318508 1.780573 -11.647326
v -3.396285 1.780573 -8.349859
v -8.296926 1.515436 -10.492756
v -3.824438 1.515436 -6.665977
v -3.838653 1.515436 -6.063558
v 0.734359 1.515436 -2.105287
v -1.123351 1.780573 -6.340196
v -3.443695 1.780573 -6.340199
v 2.423542 1.780573 -11.511873
v 2.345751 1.780573 -8.214409
v 2.301537 1.780573 -6.340202
v 2.301539 1.780573 -6.063559
v 2.301538 1.780573 -3.573794
v 10.297571 1.780573 -3.573795
v 10.598711 1.780573 -11.319032
v -0.810474 1.635247 -6.063559
v 2.301539 1.635247 -6.063559
v 2.301537 1.635247 -6.340202
v -1.123351 1.635247 -6.340196
v -3.443695 1.635247 -6.340199
v -3.124090 1.635247 -6.063558
v -3.824438 1.635247 -6.665977
v -3.838653 1.635247 -6.063558
v -3.776784 1.635247 -8.686283
v -3.396285 1.635247 -8.349859
v -3.706716 1.635247 -11.656485
v -3.318508 1.635247 -11.647326
v -3.318508 1.515436 -11.647326
v -3.396285 1.515436 -8.349859
v -3.443695 1.515436 -6.340199
v -1.123351 1.515436 -6.340196
v 2.301537 1.515436 -6.340202
v -8.600517 1.515436 -10.137938
v -10.829353 1.515436 -7.533017
v -1.593802 1.515436 0.584453

# UV coordinates
vt 0.417056 0.454202
vt 0.326680 0.454202
vt 0.489356 0.313394
vt 0.527053 0.356946
vt 0.976504 0.287902
vt 0.624744 0.287902
vt 0.624744 0.028145
vt 0.976504 0.028145
vt 0.538619 0.356946
vt 0.538619 0.454202
vt 0.166289 0.674299
vt 0.301344 0.556652
vt 0.301344 0.674299
vt 0.495366 0.608510
vt 0.495366 0.735333
vt 0.405975 0.735333
vt 0.405975 0.608510
vt 0.124616 0.627218
vt 0.301344 0.477734
vt 0.301344 0.454202
vt 0.477401 0.299582
vt 0.485411 0.536623
vt 0.405975 0.536623
vt 0.627002 0.735333
vt 0.627002 0.608510
vt 0.617047 0.536623
vt 0.627002 0.528590
vt 0.627002 0.423947
vt 0.949303 0.423947
vt 0.949303 0.735333
vt 0.448027 0.481403
vt 0.569678 0.482561
vt 0.569579 0.493375
vt 0.435733 0.492153
vt 0.345051 0.492231
vt 0.357528 0.481403
vt 0.330279 0.505063
vt 0.329568 0.481492
vt 0.332825 0.583932
vt 0.347547 0.570662
vt 0.336733 0.699782
vt 0.351874 0.699272
vt 0.398620 0.735333
vt 0.398620 0.608510
vt 0.398620 0.528590
vt 0.485411 0.528590
vt 0.617047 0.528590
vt 0.617615 0.528590
vt 0.617615 0.423947
vt 0.448052 0.476719
vt 0.569723 0.477878
vt 0.357525 0.476716
vt 0.325602 0.505214
vt 0.324881 0.481636
vt 0.329554 0.476802
vt 0.328151 0.584087
vt 0.332061 0.699940
vt 0.112757 0.613357
vt 0.030116 0.511603
vt 0.386457 0.194514
vt 0.030116 0.023477
vt 0.386457 0.023477

# vertex normals
vn 0.000000 1.000000 -0.000000
vn 0.000000 1.000000 -0.000000
vn 0.000000 1.000000 -0.000000
vn 0.000000 1.000000 -0.000000
vn 0.000000 1.000000 -0.000000
vn 0.000000 1.000000 0.000000
vn 0.000000 1.000000 -0.000000
vn -0.000000 1.000000 -0.000000
vn 0.000000 1.000000 -0.000000
vn 0.000000 1.000000 -0.000000
vn 0.000000 1.000000 -0.000000
vn 0.000000 1.000000 -0.000000
vn -0.000000 1.000000 -0.000000
vn 0.000000 1.000000 -0.000000
vn -0.000000 1.000000 0.000000
vn -0.000000 1.000000 0.000000
vn 0.000000 1.000000 -0.000000
vn 0.000000 1.000000 -0.000000
vn 0.000000 1.000000 0.000000
vn 0.000000 1.000000 0.000000
vn -0.000000 1.000000 -0.000000
vn 0.000000 1.000000 0.000000
vn 0.000000 1.000000 0.000000
vn 0.000000 1.000000 0.000000
vn -0.000000 1.000000 0.000000
vn -0.000000 1.000000 0.000000
vn -0.000000 1.000000 0.000000
vn -0.000000 1.000000 0.000000
vn -0.000000 1.000000 0.000000
vn -0.000000 1.000000 0.000000
vn 0.000000 1.000000 -0.000000
vn 0.000000 1.000000 -0.000000
vn 0.000000 1.000000 -0.000000
vn -0.999722 0.000000 -0.023580
vn -0.999722 0.000000 -0.023582
vn -0.999722 0.000000 -0.023582
vn -0.999722 0.000000 -0.023584
vn -0.000001 0.000000 1.000000
vn 0.000001 0.000000 1.000000
vn 0.000001 0.000000 1.000000
vn -1.000000 0.000000 0.000008
vn -1.000000 0.000000 0.000000
vn -1.000000 0.000000 0.000000
vn -1.000000 0.000000 0.000008
vn -1.000000 0.000000 -0.000000
vn 0.000002 0.000000 1.000000
vn 0.000000 0.000000 1.000000
vn 0.000000 0.000000 1.000000
vn 0.000000 0.000000 1.000000
vn 0.000000 0.000000 1.000000
vn -0.999722 0.000000 -0.023583
vn -0.999722 0.000000 -0.023589
vn -0.000000 0.000000 1.000000
vn -0.999722 0.000000 -0.023583
vn -0.999722 0.000000 -0.023583
vn -0.999722 0.000000 -0.023584
vn -0.000000 1.000000 0.000000
vn -0.000000 1.000000 0.000000
vn -0.000000 1.000000 0.000000
vn 0.000000 1.000000 -0.000000
vn 0.000000 1.000000 -0.000000

# Mesh
g Da_Floor
usemtl Floor1
f 3/3/3 4/4/1 1/1/1 2/2/2
f 8/8/6 5/5/4 6/6/5 7/7/6
f 9/9/7 10/10/7 1/1/1 4/4/1
f 11/11/6 12/12/6 13/13/6
f 14/14/8 15/15/9 16/16/10 17/17/11
f 19/19/13 12/12/14 11/11/14 18/18/12
f 21/21/16 3/3/3 2/2/2 20/20/15
f 22/22/17 14/14/8 17/17/11 23/23/18
f 29/29/24 30/30/22 24/24/19 25/25/20 26/26/21 27/27/22 28/28/23
f 26/26/21 25/25/20 14/14/8 22/22/17
f 25/25/20 24/24/19 15/15/9 14/14/8
f 32/32/26 33/33/26 34/34/25 31/31/25
f 31/31/29 34/34/30 35/35/27 36/36/28
f 36/36/28 35/35/27 37/37/31 38/38/6
f 35/35/27 40/40/32 39/39/32 37/37/31
f 40/40/33 42/42/33 41/41/33 39/39/33
f 16/16/34 43/43/34 44/44/35 17/17/36
f 17/17/36 44/44/35 45/45/37 23/23/37
f 46/46/39 22/22/40 23/23/38 45/45/38
f 10/48/42 27/27/43 26/26/44 47/47/41
f 27/27/43 10/48/42 9/49/45 28/28/45
f 47/47/46 26/26/46 22/22/40 46/46/39
f 10/51/48 32/32/48 31/31/47 1/50/47
f 1/50/47 31/31/47 36/36/50 2/52/49
f 37/37/51 19/53/51 20/54/52 38/38/52
f 2/52/49 36/36/50 38/38/53 20/55/53
f 39/39/55 12/56/54 19/53/51 37/37/51
f 41/41/56 13/57/56 12/56/54 39/39/55
f 20/20/15 19/19/13 18/18/12 48/58/57
f 50/60/59 21/21/16 20/20/15 48/58/57 49/59/58
f 5/62/4 50/60/60 49/59/61 6/61/5
